#N canvas 80 49 651 365 10;
#X floatatom 186 72 5 0 0 0 - - -, f 5;
#X obj 115 89 select 0 1 2 3 4 5 6;
#X obj 65 7 r instrument;
#X obj 11 145 s violin;
#X obj 63 145 s guitar;
#X obj 161 145 s snare;
#X obj 207 145 s toms;
#X obj 247 145 s cymbal;
#X obj 299 145 s bass;
#X obj 339 145 s error;
#X obj 115 145 s flute;
#X obj 214 189 r flute;
#N canvas 675 36 1365 619 flute 0;
#X obj 100 76 inlet switch;
#X obj 23 358 osc~;
#X obj 57 315 * 2;
#X obj 57 358 osc~;
#X obj 90 358 osc~;
#X obj 123 358 osc~;
#X obj 157 358 osc~;
#X obj 190 358 osc~;
#X obj 223 358 osc~;
#X obj 257 358 osc~;
#X obj 290 358 osc~;
#X obj 323 358 osc~;
#X obj 357 358 osc~;
#X obj 390 358 osc~;
#X obj 423 358 osc~;
#X obj 457 358 osc~;
#X obj 490 358 osc~;
#X obj 523 358 osc~;
#X obj 557 358 osc~;
#X obj 590 358 osc~;
#X obj 92 315 * 3;
#X obj 123 315 * 4;
#X obj 157 315 * 5;
#X obj 190 315 * 6;
#X obj 227 315 * 7;
#X obj 258 315 * 8;
#X obj 288 315 * 9;
#X obj 323 315 * 10;
#X obj 358 315 * 11;
#X obj 389 315 * 12;
#X obj 423 315 * 13;
#X obj 456 315 * 14;
#X obj 493 315 * 15;
#X obj 524 315 * 16;
#X obj 554 315 * 17;
#X obj 592 316 * 18;
#X obj -40 511 *~ 0.5;
#X floatatom -7 490 5 0 0 0 - - -, f 5;
#X floatatom -7 412 5 0 0 0 - - -, f 5;
#X obj -7 463 dbtorms;
#X obj -7 436 + 100;
#X obj 14 512 *~ 0.5;
#X floatatom 47 491 5 0 0 0 - - -, f 5;
#X floatatom 47 413 5 0 0 0 - - -, f 5;
#X obj 47 464 dbtorms;
#X obj 47 437 + 100;
#X obj 64 512 *~ 0.5;
#X floatatom 97 491 5 0 0 0 - - -, f 5;
#X floatatom 97 413 5 0 0 0 - - -, f 5;
#X obj 97 464 dbtorms;
#X obj 97 437 + 100;
#X obj 116 512 *~ 0.5;
#X floatatom 149 491 5 0 0 0 - - -, f 5;
#X floatatom 149 413 5 0 0 0 - - -, f 5;
#X obj 149 464 dbtorms;
#X obj 149 437 + 100;
#X obj 168 510 *~ 0.5;
#X floatatom 201 489 5 0 0 0 - - -, f 5;
#X floatatom 201 411 5 0 0 0 - - -, f 5;
#X obj 201 462 dbtorms;
#X obj 201 435 + 100;
#X obj 219 510 *~ 0.5;
#X floatatom 252 489 5 0 0 0 - - -, f 5;
#X floatatom 252 411 5 0 0 0 - - -, f 5;
#X obj 252 462 dbtorms;
#X obj 252 435 + 100;
#X obj 269 510 *~ 0.5;
#X floatatom 302 489 5 0 0 0 - - -, f 5;
#X floatatom 302 411 5 0 0 0 - - -, f 5;
#X obj 302 462 dbtorms;
#X obj 302 435 + 100;
#X obj 321 510 *~ 0.5;
#X floatatom 354 489 5 0 0 0 - - -, f 5;
#X floatatom 354 411 5 0 0 0 - - -, f 5;
#X obj 354 462 dbtorms;
#X obj 354 435 + 100;
#X obj 371 511 *~ 0.5;
#X floatatom 404 490 5 0 0 0 - - -, f 5;
#X floatatom 404 412 5 0 0 0 - - -, f 5;
#X obj 404 463 dbtorms;
#X obj 404 436 + 100;
#X obj 425 511 *~ 0.5;
#X floatatom 458 490 5 0 0 0 - - -, f 5;
#X floatatom 458 412 5 0 0 0 - - -, f 5;
#X obj 458 463 dbtorms;
#X obj 458 436 + 100;
#X obj 479 512 *~ 0.5;
#X floatatom 512 491 5 0 0 0 - - -, f 5;
#X floatatom 512 413 5 0 0 0 - - -, f 5;
#X obj 512 464 dbtorms;
#X obj 512 437 + 100;
#X obj 529 512 *~ 0.5;
#X floatatom 562 491 5 0 0 0 - - -, f 5;
#X floatatom 562 413 5 0 0 0 - - -, f 5;
#X obj 562 464 dbtorms;
#X obj 562 437 + 100;
#X obj 581 512 *~ 0.5;
#X floatatom 614 491 5 0 0 0 - - -, f 5;
#X floatatom 614 413 5 0 0 0 - - -, f 5;
#X obj 614 464 dbtorms;
#X obj 614 437 + 100;
#X obj 633 510 *~ 0.5;
#X floatatom 666 489 5 0 0 0 - - -, f 5;
#X floatatom 666 411 5 0 0 0 - - -, f 5;
#X obj 666 462 dbtorms;
#X obj 666 435 + 100;
#X obj 684 510 *~ 0.5;
#X floatatom 717 489 5 0 0 0 - - -, f 5;
#X floatatom 717 411 5 0 0 0 - - -, f 5;
#X obj 717 462 dbtorms;
#X obj 717 435 + 100;
#X obj 734 510 *~ 0.5;
#X floatatom 767 489 5 0 0 0 - - -, f 5;
#X floatatom 767 411 5 0 0 0 - - -, f 5;
#X obj 767 462 dbtorms;
#X obj 767 435 + 100;
#X obj 786 510 *~ 0.5;
#X floatatom 819 489 5 0 0 0 - - -, f 5;
#X floatatom 819 411 5 0 0 0 - - -, f 5;
#X obj 819 462 dbtorms;
#X obj 819 435 + 100;
#X obj 836 511 *~ 0.5;
#X floatatom 869 490 10 0 0 0 - - -, f 10;
#X floatatom 869 412 5 0 0 0 - - -, f 5;
#X obj 869 463 dbtorms;
#X obj 869 436 + 100;
#X obj 634 269 loadbang;
#X obj 633 316 unpack f f f f f f f f f f f f f f f f f f;
#X obj 633 291 list -5 -18 -21 -25 -41 -43 -58 -60 -62 -62 -72 -73
-74 -75 -76 -77 -78 -79, f 76;
#X obj -66 540 throw~ sum;
#X obj -2 540 throw~ sum;
#X obj 64 540 throw~ sum;
#X obj 129 540 throw~ sum;
#X obj 200 542 throw~ sum;
#X obj 264 542 throw~ sum;
#X obj 330 542 throw~ sum;
#X obj 394 542 throw~ sum;
#X obj 485 544 throw~ sum;
#X obj 549 544 throw~ sum;
#X obj 615 544 throw~ sum;
#X obj 680 544 throw~ sum;
#X obj 752 543 throw~ sum;
#X obj 816 543 throw~ sum;
#X obj 882 543 throw~ sum;
#X obj 947 543 throw~ sum;
#X obj 1011 542 throw~ sum;
#X obj 1076 542 throw~ sum;
#X obj -45 654 catch~ sum;
#X floatatom 31 270 5 0 0 0 - - -, f 5;
#X obj 39 802 dac~;
#X msg 3 144 \; pd dsp \$1;
#X obj 3 116 tgl 15 0 empty empty empty 17 7 0 10 -262144 -1 -1 1 1
;
#X obj 88 769 *~ 0.99;
#X obj 88 740 lop~ 5000;
#X floatatom 194 712 5 0 0 0 - - -, f 5;
#X obj 50 601 vline~;
#X msg 50 572 0.9 100 \, 0.7 10 100 \, 0 1000 200;
#X obj 8 691 *~;
#X obj 34 735 *~;
#X floatatom 52 694 5 0 0 0 - - -, f 5;
#X obj 607 266 bng 15 250 50 0 empty empty empty 17 7 0 10 -262144
-1 -1;
#X obj -2 558 bng 15 250 50 0 empty empty empty 17 7 0 10 -262144 -1
-1;
#X obj 31 246 mtof;
#X obj 31 195 hradio 15 1 0 36 empty empty empty 0 -8 0 10 -262144
-1 -1 0;
#X obj 31 218 + 60;
#X msg 87 667 0.9;
#X obj 88 638 loadbang;
#X obj 195 654 loadbang;
#X msg 195 683 850;
#X obj 100 100 tgl 15 0 empty empty empty 17 7 0 10 -262144 -1 -1 0
1;
#X obj 88 717 vd~ myDelay;
#X obj 88 798 delwrite~ myDelay 1000;
#X obj 336 768 +~;
#X obj 351 720 osc~;
#X obj 351 744 *~;
#X obj 465 690 line~;
#X msg 465 667 \$1 10;
#X obj 386 873 *~;
#X obj 434 883 line~;
#X msg 434 855 \$1 10;
#X obj 437 831 hsl 128 15 0 0.5 0 0 empty empty empty -2 -8 0 10 -204786
-1 -1 6350 1;
#X obj 404 638 nbx 4 14 -1e+37 1e+37 0 1 empty modulator empty 0 -8
0 10 -204800 -1 -1 0.99 256;
#X obj 465 638 nbx 4 14 0 1e+37 0 1 empty index empty 0 -8 0 10 -204786
-1 -1 1 256;
#X obj 336 640 nbx 4 14 -1e+37 1e+37 0 1 empty carrier empty 0 -8 0
10 -232576 -1 -1 440 256;
#X text 327 618 carrier;
#X obj 386 810 osc~;
#X obj 381 674 *~;
#X obj 411 712 *~;
#X text 392 617 Harmonicity;
#X obj 552 627 bng 15 250 50 0 empty empty empty 17 7 0 10 -262144
-1 -1;
#X obj 486 933 *~;
#X obj 758 695 vline~;
#X msg 758 666 0.9 100 \, 0.7 10 100 \, 0 1000 200;
#X obj 100 131 metro 60;
#X floatatom 184 172 5 0 36 0 - - -, f 5;
#X text 227 172 change notes by changing this number;
#X msg 426 787 0.25;
#X obj -4 31 loadbang;
#X msg -4 53 1;
#X obj 176 76 inlet pitch;
#X obj 510 793 / 2;
#X obj 510 757 r volume;
#X text 55 99 on/off;
#X connect 0 0 169 0;
#X connect 1 0 36 0;
#X connect 2 0 3 0;
#X connect 3 0 41 0;
#X connect 4 0 46 0;
#X connect 5 0 51 0;
#X connect 6 0 56 0;
#X connect 7 0 61 0;
#X connect 8 0 66 0;
#X connect 9 0 71 0;
#X connect 10 0 76 0;
#X connect 11 0 81 0;
#X connect 12 0 86 0;
#X connect 13 0 91 0;
#X connect 14 0 96 0;
#X connect 15 0 101 0;
#X connect 16 0 106 0;
#X connect 17 0 111 0;
#X connect 18 0 116 0;
#X connect 19 0 121 0;
#X connect 20 0 4 0;
#X connect 21 0 5 0;
#X connect 22 0 6 0;
#X connect 23 0 7 0;
#X connect 24 0 8 0;
#X connect 25 0 9 0;
#X connect 26 0 10 0;
#X connect 27 0 11 0;
#X connect 28 0 12 0;
#X connect 29 0 13 0;
#X connect 30 0 14 0;
#X connect 31 0 15 0;
#X connect 32 0 16 0;
#X connect 33 0 17 0;
#X connect 34 0 18 0;
#X connect 35 0 19 0;
#X connect 36 0 129 0;
#X connect 37 0 36 1;
#X connect 38 0 40 0;
#X connect 39 0 37 0;
#X connect 40 0 39 0;
#X connect 41 0 130 0;
#X connect 42 0 41 1;
#X connect 43 0 45 0;
#X connect 44 0 42 0;
#X connect 45 0 44 0;
#X connect 46 0 131 0;
#X connect 47 0 46 1;
#X connect 48 0 50 0;
#X connect 49 0 47 0;
#X connect 50 0 49 0;
#X connect 51 0 132 0;
#X connect 52 0 51 1;
#X connect 53 0 55 0;
#X connect 54 0 52 0;
#X connect 55 0 54 0;
#X connect 56 0 133 0;
#X connect 57 0 56 1;
#X connect 58 0 60 0;
#X connect 59 0 57 0;
#X connect 60 0 59 0;
#X connect 61 0 134 0;
#X connect 62 0 61 1;
#X connect 63 0 65 0;
#X connect 64 0 62 0;
#X connect 65 0 64 0;
#X connect 66 0 135 0;
#X connect 67 0 66 1;
#X connect 68 0 70 0;
#X connect 69 0 67 0;
#X connect 70 0 69 0;
#X connect 71 0 136 0;
#X connect 72 0 71 1;
#X connect 73 0 75 0;
#X connect 74 0 72 0;
#X connect 75 0 74 0;
#X connect 76 0 137 0;
#X connect 77 0 76 1;
#X connect 78 0 80 0;
#X connect 79 0 77 0;
#X connect 80 0 79 0;
#X connect 81 0 138 0;
#X connect 82 0 81 1;
#X connect 83 0 85 0;
#X connect 84 0 82 0;
#X connect 85 0 84 0;
#X connect 86 0 139 0;
#X connect 87 0 86 1;
#X connect 88 0 90 0;
#X connect 89 0 87 0;
#X connect 90 0 89 0;
#X connect 91 0 140 0;
#X connect 92 0 91 1;
#X connect 93 0 95 0;
#X connect 94 0 92 0;
#X connect 95 0 94 0;
#X connect 96 0 141 0;
#X connect 97 0 96 1;
#X connect 98 0 100 0;
#X connect 99 0 97 0;
#X connect 100 0 99 0;
#X connect 101 0 142 0;
#X connect 102 0 101 1;
#X connect 103 0 105 0;
#X connect 104 0 102 0;
#X connect 105 0 104 0;
#X connect 106 0 143 0;
#X connect 107 0 106 1;
#X connect 108 0 110 0;
#X connect 109 0 107 0;
#X connect 110 0 109 0;
#X connect 111 0 144 0;
#X connect 112 0 111 1;
#X connect 113 0 115 0;
#X connect 114 0 112 0;
#X connect 115 0 114 0;
#X connect 116 0 145 0;
#X connect 117 0 116 1;
#X connect 118 0 120 0;
#X connect 119 0 117 0;
#X connect 120 0 119 0;
#X connect 121 0 146 0;
#X connect 122 0 121 1;
#X connect 123 0 125 0;
#X connect 124 0 122 0;
#X connect 125 0 124 0;
#X connect 126 0 128 0;
#X connect 127 0 38 0;
#X connect 127 1 43 0;
#X connect 127 2 48 0;
#X connect 127 3 53 0;
#X connect 127 4 58 0;
#X connect 127 5 63 0;
#X connect 127 6 68 0;
#X connect 127 7 73 0;
#X connect 127 8 78 0;
#X connect 127 9 83 0;
#X connect 127 10 88 0;
#X connect 127 11 93 0;
#X connect 127 12 98 0;
#X connect 127 13 103 0;
#X connect 127 14 108 0;
#X connect 127 15 113 0;
#X connect 127 16 118 0;
#X connect 127 17 123 0;
#X connect 128 0 127 0;
#X connect 147 0 157 0;
#X connect 148 0 1 0;
#X connect 148 0 2 0;
#X connect 148 0 20 0;
#X connect 148 0 21 0;
#X connect 148 0 22 0;
#X connect 148 0 23 0;
#X connect 148 0 24 0;
#X connect 148 0 25 0;
#X connect 148 0 26 0;
#X connect 148 0 27 0;
#X connect 148 0 28 0;
#X connect 148 0 29 0;
#X connect 148 0 30 0;
#X connect 148 0 31 0;
#X connect 148 0 32 0;
#X connect 148 0 33 0;
#X connect 148 0 34 0;
#X connect 148 0 35 0;
#X connect 148 0 161 0;
#X connect 151 0 150 0;
#X connect 152 0 171 0;
#X connect 153 0 152 0;
#X connect 153 0 149 0;
#X connect 153 0 149 1;
#X connect 154 0 153 1;
#X connect 155 0 157 1;
#X connect 156 0 155 0;
#X connect 157 0 158 0;
#X connect 159 0 158 1;
#X connect 160 0 128 0;
#X connect 161 0 156 0;
#X connect 162 0 148 0;
#X connect 162 0 186 0;
#X connect 162 0 172 0;
#X connect 163 0 164 0;
#X connect 164 0 162 0;
#X connect 165 0 159 0;
#X connect 166 0 165 0;
#X connect 167 0 168 0;
#X connect 168 0 154 0;
#X connect 169 0 193 0;
#X connect 170 0 153 0;
#X connect 172 0 185 0;
#X connect 173 0 174 0;
#X connect 174 0 172 1;
#X connect 175 0 187 1;
#X connect 176 0 175 0;
#X connect 177 0 171 0;
#X connect 178 0 190 0;
#X connect 179 0 178 0;
#X connect 180 0 179 0;
#X connect 181 0 186 1;
#X connect 182 0 176 0;
#X connect 183 0 172 0;
#X connect 183 0 186 0;
#X connect 185 0 177 0;
#X connect 186 0 173 0;
#X connect 186 0 187 0;
#X connect 187 0 174 1;
#X connect 189 0 192 0;
#X connect 190 0 177 1;
#X connect 191 0 190 1;
#X connect 192 0 191 0;
#X connect 193 0 189 0;
#X connect 193 0 194 0;
#X connect 194 0 163 0;
#X connect 196 0 180 0;
#X connect 197 0 198 0;
#X connect 198 0 151 0;
#X connect 199 0 194 0;
#X connect 200 0 180 0;
#X connect 201 0 200 0;
#X restore 234 220 pd flute;
#X obj 40 193 r violin;
#N canvas 160 111 1365 613 violin 0;
#X obj -2424 -2436 inlet switch;
#X obj -2348 -2436 inlet pitch;
#X obj -2465 -2143 +~;
#X obj -2450 -2167 *~;
#X obj -2336 -2221 line~;
#X msg -2336 -2244 \$1 10;
#X obj -2415 -2038 *~;
#X obj -2367 -2028 line~;
#X msg -2367 -2056 \$1 10;
#X obj -2364 -2080 hsl 128 15 0 0.5 0 0 empty empty empty -2 -8 0 10
-204786 -1 -1 6350 1;
#X obj -2397 -2273 nbx 4 14 -1e+37 1e+37 0 1 empty modulator empty
0 -8 0 10 -204800 -1 -1 0.99 256;
#X obj -2336 -2273 nbx 4 14 0 1e+37 0 1 empty index empty 0 -8 0 10
-204786 -1 -1 1 256;
#X obj -2415 -1983 dac~;
#X obj -2420 -2237 *~;
#X obj -2390 -2199 *~;
#X obj -2135 -2153 vline~;
#X obj -2249 -2284 bng 15 250 50 0 empty empty empty 17 7 0 10 -262144
-1 -1;
#X obj -2245 -2155 vline~;
#X obj -2315 -1978 *~;
#X obj -2249 -2243 nbx 5 14 -1e+37 1e+37 0 0 empty index empty 0 -8
0 10 -262144 -1 -1 1 256;
#X obj -2013 -2069 nbx 5 14 -1e+37 1e+37 0 0 empty duration empty 0
-8 0 10 -262144 -1 -1 1000 256;
#X obj -2245 -2215 pack f f;
#X msg -2245 -2186 \$1 \, 0 \$2;
#X obj -2450 -2191 osc~;
#X obj -2513 -2109 phasor~;
#X obj -2436 -2055 +~;
#X obj -2418 -2092 *~ 0.91;
#X obj -2420 -2119 osc~;
#X obj -2491 -2076 *~ 0.09;
#X obj -2408 -2173 r volume;
#X obj -2387 -2135 / 2;
#X obj -1877 -2315 mtof;
#X obj -1877 -2366 hradio 15 1 0 36 empty empty empty 0 -8 0 10 -262144
-1 -1 0;
#X obj -1877 -2343 + 60;
#X floatatom -1877 -2393 5 0 36 0 - - -, f 5;
#X obj -2348 -2408 s note;
#X obj -1877 -2426 r note;
#X obj -1877 -2255 s freq;
#X msg -1798 -2199 \; carrier 440 \; modulator 1 \; index 1 \; duration
1000 \;;
#X obj -2424 -2410 tgl 15 0 empty empty empty 17 7 0 10 -262144 -1
-1 0 1;
#X obj -2424 -2390 select 0 1;
#X floatatom -2465 -2267 5 0 0 0 - - -, f 5;
#X obj -2465 -2289 r freq;
#X msg -2364 -2357 \; modulator 1 \; index 1 \; duration 1e+06 \;;
#X obj -2062 -2146 tgl 15 0 empty empty empty 17 7 0 10 -262144 -1
-1 1000 1000;
#X msg -2136 -2186 0.7 10 \, 0 \$1 10;
#X text -2201 -1969 The modulation index varies over time. Needs to
be added to the patch;
#X floatatom -1877 -2284 5 0 0 0 - - -, f 5;
#X obj -1578 -2110 spigot;
#X obj -1579 -2081 moses;
#X msg -2463 -2357 \; modulator 0.99 \; index 1 \; duration 1000 \;
;
#X obj -1932 -2425 loadbang;
#X connect 0 0 39 0;
#X connect 1 0 35 0;
#X connect 2 0 24 0;
#X connect 2 0 27 0;
#X connect 3 0 2 1;
#X connect 5 0 4 0;
#X connect 6 0 12 0;
#X connect 6 0 12 1;
#X connect 7 0 18 0;
#X connect 8 0 7 0;
#X connect 9 0 8 0;
#X connect 10 0 13 1;
#X connect 11 0 5 0;
#X connect 13 0 14 0;
#X connect 13 0 23 0;
#X connect 14 0 3 1;
#X connect 15 0 18 1;
#X connect 16 0 19 0;
#X connect 16 0 45 0;
#X connect 17 0 14 1;
#X connect 18 0 6 1;
#X connect 19 0 21 0;
#X connect 20 0 21 1;
#X connect 20 0 44 0;
#X connect 21 0 22 0;
#X connect 22 0 17 0;
#X connect 23 0 3 0;
#X connect 24 0 28 0;
#X connect 25 0 6 0;
#X connect 26 0 25 1;
#X connect 27 0 26 0;
#X connect 28 0 25 0;
#X connect 29 0 30 0;
#X connect 30 0 9 0;
#X connect 31 0 47 0;
#X connect 32 0 33 0;
#X connect 33 0 31 0;
#X connect 34 0 32 0;
#X connect 36 0 34 0;
#X connect 39 0 40 0;
#X connect 40 0 50 0;
#X connect 40 1 43 0;
#X connect 41 0 2 0;
#X connect 41 0 13 0;
#X connect 42 0 41 0;
#X connect 44 0 45 0;
#X connect 45 0 15 0;
#X connect 47 0 37 0;
#X connect 51 0 34 0;
#X restore 55 220 pd violin;
#X obj 248 268 r error;
#X floatatom 248 294 5 0 0 0 - - -, f 5;
#X obj 248 318 print -n;
#X obj 260 189 r pitch;
#X obj 92 193 r pitch;
#X msg 115 34 0;
#X msg 142 34 1;
#X msg 169 34 2;
#X msg 196 34 3;
#X msg 223 34 4;
#X msg 250 34 5;
#X msg 277 34 6;
#X obj 474 77 s pitch;
#X obj 314 42 hsl 128 15 0 1 0 0 empty empty empty -2 -8 0 10 -262144
-1 -1 6350 1;
#X floatatom 474 45 5 0 36 0 - - -, f 5;
#X msg 289 294 No such instrument corresponds to this code;
#X obj 146 193 r pitch;
#N canvas 13 22 705 623 guitar 0;
#X obj 73 -502 *~ 0.25;
#X obj 105 -594 karpluck~;
#X obj 180 -573 karpluck~;
#X obj 258 -556 karpluck~;
#X obj 327 -541 karpluck~;
#X obj 99 -818 i 52;
#X obj 27 -869 i 40;
#X obj 66 -851 i 49;
#X obj 136 -796 i 55;
#X obj 175 -791 i 59;
#X obj 211 -771 i 64;
#N canvas 722 66 589 438 chords 0;
#X obj 249 26 inlet;
#X obj 82 265 outlet;
#X obj 132 265 outlet;
#X obj 180 264 outlet;
#X obj 227 265 outlet;
#X obj 276 266 outlet;
#X obj 330 266 outlet;
#X obj 144 201 unpack f f f f f f;
#X text 347 24 choose one of four chords \, and output the midi pitches
for each of the six strings.;
#X msg 420 98 60 57 52 45;
#X msg 420 132 66 62 57 50;
#X msg 420 149 65 62 57 50;
#X msg 420 166 64 59 55 52 47 40;
#X msg 421 183 64 59 56 52 47 40;
#X msg 421 200 65 60 57 53;
#X msg 421 217 67 59 55 50 47 43;
#X msg 420 81 64 61 57 52 45;
#X msg 420 115 64 60 55 52 48;
#X obj 249 54 route 0 1 2 3 4 5 6 7 8 9;
#X msg 421 234 64 60 57 52 45;
#X connect 0 0 18 0;
#X connect 7 0 1 0;
#X connect 7 1 2 0;
#X connect 7 2 3 0;
#X connect 7 3 4 0;
#X connect 7 4 5 0;
#X connect 7 5 6 0;
#X connect 9 0 7 0;
#X connect 10 0 7 0;
#X connect 11 0 7 0;
#X connect 12 0 7 0;
#X connect 13 0 7 0;
#X connect 14 0 7 0;
#X connect 15 0 7 0;
#X connect 16 0 7 0;
#X connect 17 0 7 0;
#X connect 18 0 16 0;
#X connect 18 1 9 0;
#X connect 18 2 17 0;
#X connect 18 3 10 0;
#X connect 18 4 11 0;
#X connect 18 5 12 0;
#X connect 18 6 13 0;
#X connect 18 7 14 0;
#X connect 18 8 15 0;
#X connect 18 9 19 0;
#X connect 19 0 7 0;
#X restore 37 -912 pd chords;
#X obj 167 -885 del 15;
#X obj 202 -863 del 15;
#X obj 237 -842 del 15;
#X obj 276 -820 del 15;
#X obj 312 -788 del 15;
#X floatatom 298 -859 5 0 0 0 - - -, f 5;
#X obj 253 -727 r width;
#X obj 299 -727 r decay;
#X obj 345 -727 r cutoff;
#X obj 493 -922 hsl 180 15 1 40 0 0 empty \$0-width_ctrl width 5 -8
1 10 -262144 -1 -1 3213 1;
#X obj 492 -842 hsl 180 15 0.9 0.999 0 0 empty \$0-decay_ctrl decay
5 -8 1 10 -262144 -1 -1 17177 1;
#X obj 492 -768 hsl 180 15 100 8000 0 0 empty \$0-cutoff_ctrl cutoff
5 -8 1 10 -262144 -1 -1 12689 1;
#X obj 489 -748 s cutoff;
#X floatatom 345 -705 5 0 0 0 - - -, f 5;
#X floatatom 299 -705 5 0 0 0 - - -, f 5;
#X floatatom 253 -705 5 0 0 0 - - -, f 5;
#X obj 557 -658 loadbang;
#X msg 533 -566 0.995;
#X msg 576 -566 5700;
#X msg 503 -566 8;
#X msg 616 -565 8;
#X obj 491 -693 hsl 180 15 1 250 0 0 empty \$0-strum_speed_ctrl strum_speed
5 -8 1 10 -262144 -1 -1 503 1;
#X obj 490 -902 s width;
#X obj 489 -822 s decay;
#X obj 488 -673 s speed;
#X obj 298 -887 r speed;
#X obj 557 -625 bng 15 250 50 0 empty empty empty 17 7 0 10 -262144
-1 -1;
#X obj 609 -540 s speedS;
#X obj 576 -517 s cutoffS;
#X obj 533 -496 s decayS;
#X obj 503 -472 s widthS;
#X obj 490 -957 r widthS;
#X obj 489 -878 r decayS;
#X obj 489 -799 r cutoffS;
#X obj 488 -724 r widthS;
#X obj 65 -471 dac~;
#X floatatom 37 -988 5 0 3 0 - - -, f 5;
#X msg 208 -1027 0;
#X msg 235 -1027 1;
#X msg 262 -1027 2;
#X msg 289 -1027 3;
#X obj 236 -473 hsl 128 15 0 1 0 0 empty empty empty -2 -8 0 10 -204786
-1 -1 6350 1;
#X obj 233 -501 r volume;
#X obj 233 -450 / 4;
#X obj 37 -964 spigot;
#X obj 96 -955 tgl 15 0 empty empty empty 17 7 0 10 -262144 -1 -1 0
1;
#X obj -12 -1021 inlet pitch;
#X obj 238 -972 r guitar;
#X obj 238 -949 delay 1000;
#X msg 238 -928 0;
#X msg 179 -951 1;
#X floatatom 37 -942 5 0 0 0 - - -, f 5;
#X obj 34 -616 karpluck~;
#X obj -26 -640 karpluck~;
#X msg 316 -1027 4;
#X msg 343 -1027 5;
#X msg 370 -1027 6;
#X msg 397 -1027 7;
#X msg 424 -1027 8;
#X connect 0 0 47 0;
#X connect 0 0 47 1;
#X connect 1 0 0 0;
#X connect 2 0 0 0;
#X connect 3 0 0 0;
#X connect 4 0 0 0;
#X connect 5 0 1 0;
#X connect 6 0 65 0;
#X connect 7 0 64 0;
#X connect 8 0 2 0;
#X connect 9 0 3 0;
#X connect 10 0 4 0;
#X connect 11 0 6 0;
#X connect 11 1 7 0;
#X connect 11 2 5 0;
#X connect 11 3 8 0;
#X connect 11 4 9 0;
#X connect 11 5 10 0;
#X connect 12 0 7 0;
#X connect 12 0 13 0;
#X connect 13 0 5 0;
#X connect 13 0 14 0;
#X connect 14 0 8 0;
#X connect 14 0 15 0;
#X connect 15 0 9 0;
#X connect 15 0 16 0;
#X connect 16 0 10 0;
#X connect 17 0 12 1;
#X connect 17 0 13 1;
#X connect 17 0 14 1;
#X connect 17 0 15 1;
#X connect 17 0 16 1;
#X connect 18 0 27 0;
#X connect 19 0 26 0;
#X connect 20 0 25 0;
#X connect 21 0 34 0;
#X connect 22 0 35 0;
#X connect 23 0 24 0;
#X connect 25 0 4 3;
#X connect 25 0 3 3;
#X connect 25 0 2 3;
#X connect 25 0 1 3;
#X connect 25 0 64 3;
#X connect 25 0 65 3;
#X connect 26 0 4 2;
#X connect 26 0 3 2;
#X connect 26 0 2 2;
#X connect 26 0 1 2;
#X connect 26 0 64 2;
#X connect 26 0 65 2;
#X connect 27 0 4 1;
#X connect 27 0 3 1;
#X connect 27 0 2 1;
#X connect 27 0 1 1;
#X connect 27 0 64 1;
#X connect 27 0 65 1;
#X connect 28 0 38 0;
#X connect 29 0 41 0;
#X connect 30 0 40 0;
#X connect 31 0 42 0;
#X connect 32 0 39 0;
#X connect 33 0 36 0;
#X connect 37 0 17 0;
#X connect 38 0 31 0;
#X connect 38 0 29 0;
#X connect 38 0 30 0;
#X connect 38 0 32 0;
#X connect 43 0 21 0;
#X connect 44 0 22 0;
#X connect 45 0 23 0;
#X connect 46 0 33 0;
#X connect 48 0 56 0;
#X connect 49 0 48 0;
#X connect 50 0 48 0;
#X connect 51 0 48 0;
#X connect 52 0 48 0;
#X connect 53 0 55 0;
#X connect 54 0 53 0;
#X connect 55 0 0 1;
#X connect 56 0 63 0;
#X connect 57 0 56 1;
#X connect 58 0 48 0;
#X connect 59 0 60 0;
#X connect 59 0 62 0;
#X connect 59 0 48 0;
#X connect 60 0 61 0;
#X connect 61 0 57 0;
#X connect 62 0 57 0;
#X connect 63 0 11 0;
#X connect 64 0 0 0;
#X connect 65 0 0 0;
#X connect 66 0 48 0;
#X connect 67 0 48 0;
#X connect 68 0 48 0;
#X connect 69 0 48 0;
#X connect 70 0 48 0;
#X restore 146 221 pd guitar;
#X obj 319 188 r snare;
#N canvas 0 22 491 611 snare 0;
#X obj 26 10 inlet switch;
#X obj 108 291 noise~;
#X obj 103 196 vline~;
#X obj 102 223 *~;
#X obj 88 357 *~;
#X obj 164 396 *~;
#X obj 89 396 *~ 0.5;
#X obj 108 320 lop~ 1000;
#X obj 128 357 hip~ 950;
#X msg 102 176 1 0 0 \, 0 50 0;
#X obj 328 316 switch~;
#X obj 328 296 tgl 15 0 empty empty empty 0 -6 0 10 -262144 -1 -1 0
1;
#X msg 328 253 1;
#X msg 354 253 0;
#X floatatom 354 213 5 0 0 0 - - -, f 5;
#X obj 354 231 sel 0;
#X obj 39 73 t b b b;
#X msg 354 169 1 0 \, 0 75;
#X obj 354 191 line 1 75;
#X obj 66 556 dac~;
#X obj 31 40 bng 15 250 50 0 empty empty empty 17 7 0 10 -262144 -1
-1;
#X msg 58 137 bang;
#X obj 75 523 *~;
#X obj 201 368 vsl 15 128 0 1 0 0 empty empty empty 0 -8 0 10 -262144
-1 -1 6350 1;
#X text 219 426 volume;
#X text 271 329 audio computation on/off;
#X text 44 159 envelopes;
#X text 371 559 sg 2008;
#X obj 201 334 r volume;
#X connect 0 0 20 0;
#X connect 1 0 7 0;
#X connect 2 0 3 0;
#X connect 2 0 3 1;
#X connect 3 0 4 1;
#X connect 4 0 6 0;
#X connect 5 0 22 0;
#X connect 6 0 22 0;
#X connect 7 0 4 0;
#X connect 7 0 8 0;
#X connect 8 0 5 0;
#X connect 9 0 2 0;
#X connect 11 0 10 0;
#X connect 12 0 11 0;
#X connect 13 0 11 0;
#X connect 14 0 15 0;
#X connect 15 0 13 0;
#X connect 16 0 17 0;
#X connect 16 1 21 0;
#X connect 16 2 12 0;
#X connect 17 0 18 0;
#X connect 18 0 14 0;
#X connect 20 0 16 0;
#X connect 21 0 9 0;
#X connect 22 0 19 0;
#X connect 22 0 19 1;
#X connect 23 0 22 1;
#X connect 28 0 23 0;
#X restore 319 220 pd snare;
#X obj 311 12 r volSlider;
#X obj 386 185 r toms;
#N canvas 622 119 450 300 toms 0;
#X obj 187 123 line~;
#X obj 67 159 *~;
#X obj 59 235 dac~;
#X obj 67 208 *~ 0;
#X obj 100 194 hsl 128 15 0 1 0 0 empty empty Volume_0-1 -2 -6 0 8
-262144 -1 -1 6350 1;
#X obj 248 27 bng 15 250 50 0 empty empty empty 0 -6 0 8 -241291 -1
-1;
#X obj 67 128 osc~;
#X obj 67 90 line~;
#X msg 116 92 0.5;
#X msg 187 99 1 \, 0 25;
#X obj 173 -11 inlet switch;
#X obj 109 164 r volume;
#X msg 67 67 370 \, 90 20;
#X connect 0 0 1 1;
#X connect 1 0 3 0;
#X connect 3 0 2 0;
#X connect 3 0 2 1;
#X connect 4 0 3 1;
#X connect 5 0 9 0;
#X connect 5 0 12 0;
#X connect 5 0 8 0;
#X connect 6 0 1 0;
#X connect 7 0 6 0;
#X connect 8 0 6 1;
#X connect 9 0 0 0;
#X connect 10 0 5 0;
#X connect 11 0 4 0;
#X connect 12 0 7 0;
#X restore 386 216 pd toms;
#X text 190 246 Violin: 0 Guitar: 1 Flute: 2 Snare: 3 Toms: 4 Cymbal:
5 Bass: 6;
#X obj 392 1 loadbang;
#X obj 131 253 r bass;
#N canvas 851 131 450 300 bass 0;
#X obj 68 11 inlet switch;
#X obj 146 149 line~;
#X obj 26 185 *~;
#X obj 18 248 dac~;
#X obj 26 221 *~ 0;
#X obj 125 214 hsl 128 15 0 1 0 0 empty empty Volume_0-1 -2 -6 0 8
-262144 -1 -1 6350 1;
#X msg 146 125 1 \, 0 50;
#X obj 68 38 bng 15 250 50 0 empty empty empty 0 -6 0 8 -241291 -1
-1;
#X obj 26 154 osc~;
#X obj 26 116 line~;
#X msg 26 93 220 \, 50 20;
#X msg 75 118 0.5;
#X obj 125 177 r volume;
#X connect 0 0 7 0;
#X connect 1 0 2 1;
#X connect 2 0 4 0;
#X connect 4 0 3 0;
#X connect 4 0 3 1;
#X connect 5 0 4 1;
#X connect 6 0 1 0;
#X connect 7 0 6 0;
#X connect 7 0 10 0;
#X connect 7 0 11 0;
#X connect 8 0 2 0;
#X connect 9 0 8 0;
#X connect 10 0 9 0;
#X connect 11 0 8 1;
#X connect 12 0 5 0;
#X restore 131 288 pd bass;
#X obj 311 71 s volume;
#X obj 48 257 r cymbal;
#N canvas 0 22 450 300 cymbal 0;
#X obj 33 13 inlet switch;
#X obj 105 287 noise~;
#X obj 100 192 vline~;
#X obj 99 219 *~;
#X obj 85 353 *~;
#X obj 161 392 *~;
#X obj 86 392 *~ 0.5;
#X obj 105 316 lop~ 1000;
#X obj 125 353 hip~ 950;
#X obj 325 312 switch~;
#X obj 325 292 tgl 15 0 empty empty empty 0 -6 0 10 -262144 -1 -1 0
1;
#X msg 325 249 1;
#X msg 351 249 0;
#X floatatom 351 209 5 0 0 0 - - -, f 5;
#X obj 351 227 sel 0;
#X obj 36 69 t b b b;
#X msg 351 165 1 0 \, 0 75;
#X obj 351 187 line 1 75;
#X obj 63 552 dac~;
#X obj 36 47 bng 15 250 50 0 empty empty empty 17 7 0 10 -262144 -1
-1;
#X msg 55 133 bang;
#X obj 72 519 *~;
#X obj 198 364 vsl 15 128 0 1 0 0 empty empty empty 0 -8 0 10 -262144
-1 -1 6350 1;
#X text 216 422 volume;
#X text 68 45 hit it;
#X text 268 325 audio computation on/off;
#X text 41 155 envelopes;
#X text 368 555 sg 2008;
#X msg 99 172 1 0 0 \, 0 200 0;
#X obj 351 134 delay 200;
#X obj 198 322 r volume;
#X connect 0 0 19 0;
#X connect 1 0 7 0;
#X connect 2 0 3 0;
#X connect 2 0 3 1;
#X connect 3 0 4 1;
#X connect 4 0 6 0;
#X connect 5 0 21 0;
#X connect 6 0 21 0;
#X connect 7 0 4 0;
#X connect 7 0 8 0;
#X connect 8 0 5 0;
#X connect 10 0 9 0;
#X connect 11 0 10 0;
#X connect 12 0 10 0;
#X connect 13 0 14 0;
#X connect 14 0 12 0;
#X connect 15 0 29 0;
#X connect 15 1 20 0;
#X connect 15 2 11 0;
#X connect 16 0 17 0;
#X connect 17 0 13 0;
#X connect 19 0 15 0;
#X connect 20 0 28 0;
#X connect 21 0 18 0;
#X connect 21 0 18 1;
#X connect 22 0 21 1;
#X connect 28 0 2 0;
#X connect 29 0 16 0;
#X connect 30 0 22 0;
#X restore 48 289 pd cymbal;
#X obj 474 17 r pitchControl;
#X msg 392 23 0.5;
#X text 401 105 Violin and flute are the only instruments that need
a second click to stop the sound. The rest of the instruments start
from a call and stop by themselves., f 34;
#X text 456 178 For right now \, the guitar has four chords labelled
0 through 3 \, more chords are going to be added tomorrow in class.
, f 26;
#X text 43 339 Guitar A: 0 AM: 1 C: 2 D: 3 DM: 4 E: 5 EM: 6 F: 7 G:
8 Bm: 9, f 63;
#X connect 0 0 1 0;
#X connect 1 0 3 0;
#X connect 1 1 4 0;
#X connect 1 2 10 0;
#X connect 1 3 5 0;
#X connect 1 4 6 0;
#X connect 1 5 7 0;
#X connect 1 6 8 0;
#X connect 1 7 9 0;
#X connect 2 0 1 0;
#X connect 11 0 12 0;
#X connect 13 0 14 0;
#X connect 15 0 16 0;
#X connect 15 0 30 0;
#X connect 16 0 17 0;
#X connect 18 0 12 1;
#X connect 19 0 14 1;
#X connect 20 0 0 0;
#X connect 21 0 0 0;
#X connect 22 0 0 0;
#X connect 23 0 0 0;
#X connect 24 0 0 0;
#X connect 25 0 0 0;
#X connect 26 0 0 0;
#X connect 28 0 42 0;
#X connect 29 0 27 0;
#X connect 30 0 17 0;
#X connect 31 0 32 0;
#X connect 33 0 34 0;
#X connect 35 0 28 0;
#X connect 36 0 37 0;
#X connect 39 0 46 0;
#X connect 40 0 41 0;
#X connect 43 0 44 0;
#X connect 45 0 29 0;
#X connect 46 0 28 0;
