#N canvas 0 22 450 300 10;
#X obj 223 61 loadbang;
#X obj 227 87 bng 15 250 50 0 empty empty empty 17 7 0 10 -262144 -1
-1;
#X obj 227 107 osc~ 440;
#X obj 226 155 dac~;
#X connect 0 0 1 0;
#X connect 1 0 2 0;
#X connect 2 0 3 0;
#X connect 2 0 3 1;
